<?xml version="1.0" encoding="UTF-8" standalone="no"?>
<!DOCTYPE svg PUBLIC "-//W3C//DTD SVG 1.1//EN" "http://www.w3.org/Graphics/SVG/1.1/DTD/svg11.dtd">
<!-- Created with Vectornator (http://vectornator.io/) -->
<svg height="100%" stroke-miterlimit="10" version="1.1" viewBox="0 0 1024 1024" width="100%" xml:space="preserve" xmlns="http://www.w3.org/2000/svg" style="fill-rule: nonzero; clip-rule: evenodd; stroke-linecap: round; stroke-linejoin: round;"><defs><linearGradient gradientTransform="matrix(1.09331 0 0 1.09331 -47.1838 -88.8946)" gradientUnits="userSpaceOnUse" id="LinearGradient" x1="237.82" x2="785.097" y1="549.609" y2="549.609"><stop offset="0" stop-color="#009efd"></stop><stop offset="1" stop-color="#2af598"></stop></linearGradient></defs><g id="Layer-1"><g opacity="1"><path d="M117.718 228.798C117.718 119.455 206.358 30.8151 315.701 30.8151L708.299 30.8151C817.642 30.8151 906.282 119.455 906.282 228.798L906.282 795.202C906.282 904.545 817.642 993.185 708.299 993.185L315.701 993.185C206.358 993.185 117.718 904.545 117.718 795.202L117.718 228.798Z" fill="#0f172a" fill-rule="nonzero" opacity="1" stroke="#374151" stroke-linecap="butt" stroke-linejoin="round" stroke-width="20"></path><path d="M 212.828 215.239 C 213.095 281.169 213.629 313.028 213.629 809.028 C 213.629 809.028 313.629 809.028 313.629 809.028 C 313.629 809.028 313.629 413.028 313.629 413.028 C 313.629 413.028 511.629 700.028 511.629 700.028 C 511.629 700.028 709.629 413.028 709.629 413.028 C 709.629 413.028 709.629 809.028 709.629 809.028 C 709.629 809.028 811.172 809.028 811.172 809.028 C 811.172 809.028 811.172 215.239 811.172 215.239 C 811.172 215.239 711.172 215.239 711.172 215.239 C 711.172 215.239 511.629 530.028 511.629 530.028 C 511.629 530.028 313.629 215.239 313.629 215.239 Z" fill="url(#LinearGradient)" fill-rule="nonzero" opacity="1" stroke="none"></path></g></g></svg>